<svg xmlns="http://www.w3.org/2000/svg" viewBox="0 0 166 32"><defs><style>.cls-1{fill:none;}.cls-2{fill:#ec2227;}.cls-3{fill:#00a0e3;}</style></defs><title>logo1</title><g id="Layer_2" data-name="Layer 2"><g id="Layer_1-2" data-name="Layer 1"><path class="cls-1" d="M20.62,30.19A14.17,14.17,0,1,1,34.78,16,14.18,14.18,0,0,1,20.62,30.19Z"/><path class="cls-2" d="M15.76,16.61h6.18L19.83,11c-.26-.67-.52-1.43-.81-2.21l-.34.81h0Z"/><path class="cls-2" d="M38.21,29.73a9.19,9.19,0,0,1-9.94-1.81c-.23-.2-.45-.41-.67-.62l-.06-.07c-.21-.2-.41-.42-.61-.65l-.05-.06c-.21-.24-.41-.49-.61-.75l-.09-.12c-.19-.24-.37-.5-.55-.76a.18.18,0,0,0-.05-.07c-.18-.28-.36-.57-.54-.88l-.11-.18-.48-.89a.16.16,0,0,0,0-.07c-.16-.32-.32-.66-.47-1l-.11-.24c-.15-.36-.3-.71-.44-1.09l-1-2.59H15.23l-1.59,3.85a1.28,1.28,0,0,0,1.16,1.91h.27v.3H8.88a14.14,14.14,0,0,0,18,4.79,11,11,0,0,0,5.6,2.44A8.45,8.45,0,0,0,38.25,30Z"/><path class="cls-2" d="M17.88,6l0,0-.26-.51h0a8,8,0,0,0-2.07-2.63h0a4,4,0,0,0-4-.48s-.35.14-.52.23l.06.24a4,4,0,0,1,3.29.52A14.15,14.15,0,0,0,8.68,23.64h.15A2.71,2.71,0,0,0,10.54,23l.23-.21.09-.1a1.92,1.92,0,0,0,.18-.22l.08-.1a2.92,2.92,0,0,0,.24-.37L18.14,6.55C18.05,6.36,18,6.17,17.88,6Z"/><path class="cls-2" d="M20.62.05A15.71,15.71,0,0,0,14,1.48a2.73,2.73,0,0,1,.56.15,4,4,0,0,1,.71.31A15.05,15.05,0,0,1,34.5,10.18a14.93,14.93,0,0,1-4.29,17.46l-.05,0-.41.32-.18.14c.18.13.37.26.56.37h0l.06,0h0l.17.1A16,16,0,0,0,20.62.05Z"/><path class="cls-3" d="M27.06,29.65a14.9,14.9,0,0,1-6.43,1.45A15.06,15.06,0,0,1,12.56,3.33h-.34a9.39,9.39,0,0,0-1.47.17A16,16,0,0,0,27.93,30.22c-.3-.19-.59-.38-.86-.57Z"/><circle class="cls-1" cx="39.43" cy="20.57" r="3.37"/><path class="cls-2" d="M48.16,8.66h3.08L57.74,24H54.25l-1.39-3.41H46.44L45.05,24h-3.4Zm3.51,8.93-2-4.92-2,4.92Z"/><path class="cls-2" d="M58.49,8.77h5.92a9.09,9.09,0,0,1,3.27.57,7.55,7.55,0,0,1,2.55,1.59,7,7,0,0,1,1.66,2.4,7.55,7.55,0,0,1,.59,3v.05a7.63,7.63,0,0,1-.59,3,7.07,7.07,0,0,1-1.66,2.41,7.73,7.73,0,0,1-2.55,1.6,8.89,8.89,0,0,1-3.27.59H58.49Zm5.92,12.16a5.36,5.36,0,0,0,1.87-.32,4,4,0,0,0,1.44-.94,4.21,4.21,0,0,0,.93-1.43A4.71,4.71,0,0,0,69,16.4v0a4.87,4.87,0,0,0-.34-1.85,4.2,4.2,0,0,0-.93-1.45,4,4,0,0,0-1.44-.94,4.94,4.94,0,0,0-1.87-.34H61.83v9.15Z"/><path class="cls-2" d="M72.56,8.77h3.69l4,10.69,4-10.69h3.6L81.65,24.05h-3Z"/><path class="cls-2" d="M91.72,8.66H94.8L101.3,24H97.81l-1.39-3.41H90L88.61,24h-3.4Zm3.51,8.93-2-4.92-2,4.92Z"/><path class="cls-2" d="M107.68,24.16a10.22,10.22,0,0,1-3.4-.59,9,9,0,0,1-3-1.84l2-2.36a10.26,10.26,0,0,0,2.13,1.35,5.76,5.76,0,0,0,2.4.49,2.84,2.84,0,0,0,1.61-.38,1.18,1.18,0,0,0,.58-1v0a1.34,1.34,0,0,0-.12-.58,1.18,1.18,0,0,0-.46-.46,4.53,4.53,0,0,0-.93-.44q-.6-.21-1.56-.45a19.23,19.23,0,0,1-2.08-.63,5.7,5.7,0,0,1-1.59-.86,3.39,3.39,0,0,1-1-1.27,4.35,4.35,0,0,1-.36-1.88v-.05a4.38,4.38,0,0,1,.39-1.87,4.14,4.14,0,0,1,1.08-1.44A4.91,4.91,0,0,1,105,8.87a6.87,6.87,0,0,1,2.14-.32,8.78,8.78,0,0,1,5.64,1.93L111,13a11.28,11.28,0,0,0-2-1.09,5,5,0,0,0-2-.4,2.35,2.35,0,0,0-1.47.38,1.15,1.15,0,0,0-.49.94v0a1.29,1.29,0,0,0,.15.64,1.21,1.21,0,0,0,.51.49,4.36,4.36,0,0,0,1,.41c.43.13,1,.29,1.62.46a15.38,15.38,0,0,1,2,.68,6.26,6.26,0,0,1,1.53.91,3.53,3.53,0,0,1,.93,1.25,4.24,4.24,0,0,1,.32,1.71v.05a4.7,4.7,0,0,1-.41,2,4.2,4.2,0,0,1-1.15,1.48,5.06,5.06,0,0,1-1.74.91A7.62,7.62,0,0,1,107.68,24.16Z"/><path class="cls-2" d="M115.06,8.77h6.2a7.4,7.4,0,0,1,2.44.37,5.3,5.3,0,0,1,1.82,1.08,4.63,4.63,0,0,1,1.15,1.66,5.43,5.43,0,0,1,.4,2.13v.05a5.46,5.46,0,0,1-.47,2.32,4.8,4.8,0,0,1-1.32,1.67,5.64,5.64,0,0,1-2,1,8.39,8.39,0,0,1-2.4.33H118.4V24h-3.34Zm6,7.65a2.75,2.75,0,0,0,2-.66,2.18,2.18,0,0,0,.69-1.64v0a2.05,2.05,0,0,0-.73-1.71,3,3,0,0,0-2-.59H118.4v4.64Z"/><path class="cls-2" d="M129.47,8.77h3.34V24h-3.34Z"/><path class="cls-2" d="M135.2,8.77h6.94a6,6,0,0,1,4.43,1.53,4.7,4.7,0,0,1,1.3,3.48v0a4.74,4.74,0,0,1-.9,3,5.14,5.14,0,0,1-2.35,1.7L148.33,24h-3.91l-3.25-4.86h-2.63V24H135.2Zm6.73,7.37a2.81,2.81,0,0,0,1.9-.59,2,2,0,0,0,.66-1.56v0a1.93,1.93,0,0,0-.7-1.63,3.06,3.06,0,0,0-1.93-.54h-3.32v4.36Z"/><path class="cls-2" d="M149.81,8.77h11.43v3h-8.13v3.08h7.16v3h-7.16V21h8.24v3H149.81Z"/><line class="cls-2" x1="8.42" y1="23.95" x2="154.13" y2="23.95"/><line class="cls-2" x1="8.42" y1="8.76" x2="154.13" y2="8.76"/><path class="cls-3" d="M29,10.21a.41.41,0,0,0-.09-.3.36.36,0,0,0-.27-.15h0a.4.4,0,0,0-.41.36.44.44,0,0,0,.09.31.46.46,0,0,0,.27.15A.41.41,0,0,0,29,10.21Z"/><path class="cls-3" d="M32.3,22.06A1.48,1.48,0,0,1,32.46,21a2.6,2.6,0,0,1-.4,0,2.78,2.78,0,0,1-.44-.14,1.32,1.32,0,0,0-1.7.27.33.33,0,0,1-.46,0,.32.32,0,0,1,0-.46,2,2,0,0,1,2.4-.44,1.64,1.64,0,0,0,.34.11,2.93,2.93,0,0,0,1.67-.37,1.47,1.47,0,0,0,.36-2.1l-.49-.68a1.49,1.49,0,0,1,0-1.8l.52-.67a1.49,1.49,0,0,0-.4-2.19l-.72-.43a1.41,1.41,0,0,1-.51-.52,4.81,4.81,0,0,1-1.94,1.84,2.39,2.39,0,0,0,.08,1.45.34.34,0,0,1-.17.43l-.13,0a.34.34,0,0,1-.31-.19A3,3,0,0,1,30,13.66a5.81,5.81,0,0,1-1.19.25,1,1,0,0,1-1.87-.27,1,1,0,0,1,1.83-.39,4.3,4.3,0,0,0,3.74-2.92l.21-.77a1.49,1.49,0,0,0-1.21-1.87l-.83-.13A1.49,1.49,0,0,1,29.4,6.27l-.1-.83a1.49,1.49,0,0,0-1.83-1.27l-.82.2a1.46,1.46,0,0,1-1.14-.18,2.73,2.73,0,0,1-.9,1.94.33.33,0,0,1-.21.07.32.32,0,0,1-.25-.12.32.32,0,0,1,0-.46,2.06,2.06,0,0,0,.64-1.84,2.55,2.55,0,0,0-.29-.91,1.49,1.49,0,0,0-2.14-.41l-.68.5a1.46,1.46,0,0,1-1.19.25A12.22,12.22,0,0,1,21.89,5a1.93,1.93,0,0,1,1-.61A.27.27,0,0,1,23,5a1.31,1.31,0,0,0-.8.58,23.83,23.83,0,0,1,1.38,2.82l1.13,2.79a6.89,6.89,0,0,0,1.4-.18,6.86,6.86,0,0,0,1.52-.6,1,1,0,0,1,0-.29,1,1,0,0,1,1.06-.85.92.92,0,0,1,.64.35,1,1,0,0,1,.21.7,1,1,0,0,1-.95.85h-.11a.93.93,0,0,1-.48-.2,7.33,7.33,0,0,1-1.71.67,6.54,6.54,0,0,1-1.3.2l2.55,6.27.07,0a3.47,3.47,0,0,0,1.59-1.39.33.33,0,0,1,.44-.12.33.33,0,0,1,.13.45,4.08,4.08,0,0,1-1.94,1.68h0l.23.56c.41,1,1,2.39,1.7,3.75a1.75,1.75,0,0,0,.91-.63.26.26,0,0,1,.37-.08.28.28,0,0,1,.09.38,2.41,2.41,0,0,1-1.11.82c.24.45.49.89.76,1.31l.53-.06a1.5,1.5,0,0,0,1.26-1.84Zm-1.68-3.55a4.18,4.18,0,0,0,.84-1.33,5.59,5.59,0,0,0,.23-1.88.33.33,0,0,1,.66,0,6.58,6.58,0,0,1-.26,2.12c0,.06-.05.13-.07.2a1.32,1.32,0,0,0,.66.53.33.33,0,0,1,.17.43.35.35,0,0,1-.31.2l-.13,0a2.24,2.24,0,0,1-.73-.5,7.46,7.46,0,0,1-.57.74.36.36,0,0,1-.25.11.35.35,0,0,1-.22-.09A.33.33,0,0,1,30.62,18.51Zm-3.26-11A4.34,4.34,0,0,1,25.3,9l-.1,0a.33.33,0,0,1-.1-.64A3.76,3.76,0,0,0,26.81,7.1a2.15,2.15,0,0,0,.35-1.29.33.33,0,0,1,.29-.36.31.31,0,0,1,.36.28A2.78,2.78,0,0,1,27.36,7.46Z"/><path class="cls-3" d="M27.47,13.64a.41.41,0,0,0,.41.41.42.42,0,0,0,.41-.41.41.41,0,0,0-.41-.41A.41.41,0,0,0,27.47,13.64Z"/><rect class="cls-1" width="166" height="32"/></g></g></svg>