<?xml version="1.0" encoding="utf-8"?>
<!-- Generator: Adobe Illustrator 22.0.1, SVG Export Plug-In . SVG Version: 6.00 Build 0)  -->
<svg version="1.1" id="Layer_1" xmlns="http://www.w3.org/2000/svg" xmlns:xlink="http://www.w3.org/1999/xlink" x="0px" y="0px"
	 viewBox="0 0 64 64" style="enable-background:new 0 0 64 64;" xml:space="preserve">
<style type="text/css">
	.st0{fill:none;stroke:#FFFFFF;stroke-width:4;stroke-linejoin:round;stroke-miterlimit:10;}
	.st1{fill:none;stroke:#FFFFFF;stroke-width:3;stroke-linejoin:round;stroke-miterlimit:10;}
</style>
<title>WhatsApp</title>
<desc>A line styled icon from Orion Icon Library.</desc>
<path class="st0" d="M30.3,2C13.9,2.8,1.2,16.8,2,33.2c0.2,4.2,1.3,8.3,3.2,12L2.1,60.6C1.9,61.2,2.3,61.8,3,62c0.2,0,0.3,0,0.5,0
	l15-3.6c14.7,7.3,32.6,1.3,39.9-13.4S59.7,12.4,45,5.1C40.4,2.8,35.4,1.8,30.3,2z"/>
<path class="st1" d="M46.2,38.2l-5.8-1.7c-0.8-0.2-1.6,0-2.1,0.6l-1.4,1.4c-0.6,0.6-1.5,0.8-2.3,0.5c-2.7-1.1-8.5-6.2-9.9-8.8
	c-0.4-0.7-0.4-1.7,0.2-2.3l1.2-1.6c0.5-0.6,0.6-1.5,0.3-2.2l-2.4-5.5c-0.5-1.1-1.7-1.6-2.8-1.1c-0.2,0.1-0.4,0.2-0.5,0.3
	c-1.6,1.4-3.5,3.4-3.7,5.7c-0.4,4,1.3,9.1,7.9,15.2c7.6,7.1,13.6,8,17.6,7c2.2-0.5,4-2.7,5.2-4.5c0.6-1,0.3-2.3-0.7-3
	C46.6,38.3,46.4,38.3,46.2,38.2z"/>
</svg>
